<?xml version="1.0" encoding="UTF-8" standalone="no"?>
<svg
   xmlns:dc="http://purl.org/dc/elements/1.1/"
   xmlns:cc="http://creativecommons.org/ns#"
   xmlns:rdf="http://www.w3.org/1999/02/22-rdf-syntax-ns#"
   xmlns:svg="http://www.w3.org/2000/svg"
   xmlns="http://www.w3.org/2000/svg"
   xmlns:sodipodi="http://sodipodi.sourceforge.net/DTD/sodipodi-0.dtd"
   xmlns:inkscape="http://www.inkscape.org/namespaces/inkscape"
   width="8.1149998mm"
   height="6.151mm"
   viewBox="0 0 8.1149998 6.1509998"
   version="1.1"
   id="svg8"
   inkscape:version="0.92.5 (2060ec1f9f, 2020-04-08)"
   sodipodi:docname="discordlogo.svg">
  <defs
     id="defs2" />
  <sodipodi:namedview
     id="base"
     pagecolor="#ffffff"
     bordercolor="#666666"
     borderopacity="1.0"
     inkscape:pageopacity="0.0"
     inkscape:pageshadow="2"
     inkscape:zoom="7.9195959"
     inkscape:cx="112.69164"
     inkscape:cy="-3.8996079"
     inkscape:document-units="mm"
     inkscape:current-layer="layer1"
     showgrid="false"
     inkscape:window-width="2488"
     inkscape:window-height="1376"
     inkscape:window-x="72"
     inkscape:window-y="27"
     inkscape:window-maximized="1" />
  <metadata
     id="metadata5">
    <rdf:RDF>
      <cc:Work
         rdf:about="">
        <dc:format>image/svg+xml</dc:format>
        <dc:type
           rdf:resource="http://purl.org/dc/dcmitype/StillImage" />
        <dc:title></dc:title>
      </cc:Work>
    </rdf:RDF>
  </metadata>
  <g
     inkscape:label="Layer 1"
     inkscape:groupmode="layer"
     id="layer1"
     transform="translate(0,-290.849)">
    <path
       style="fill:#ffffff;stroke-width:0.26458332"
       inkscape:connector-curvature="0"
       d="m 6.8795628,291.36543 c -0.529007,-0.24194 -1.090824,-0.41828 -1.677246,-0.5167 -0.07382,0.12713 -0.15584,0.29936 -0.213254,0.43469 -0.623729,-0.0902 -1.24296,-0.0902 -1.85809,0 -0.05741,-0.13533 -0.143536,-0.30756 -0.213254,-0.43469 -0.59051,0.0984 -1.152326,0.27476 -1.677643,0.5167 -1.06211702,1.56652 -1.34917702,3.09613 -1.20564702,4.60524 0.705343,0.5126 1.38609002,0.82428 2.05493802,1.02933 0.164034,-0.22146 0.311666,-0.45932 0.438793,-0.70945 -0.241951,-0.0902 -0.471599,-0.20095 -0.693044,-0.33219 0.05741,-0.041 0.114826,-0.0861 0.168137,-0.1312 1.336873,0.61102 2.784885,0.61102 4.105341,0 0.05742,0.0451 0.110728,0.0902 0.168143,0.1312 -0.221456,0.13124 -0.451088,0.24196 -0.69305,0.33219 0.127133,0.25013 0.27477,0.48799 0.438785,0.70945 0.668444,-0.20505 1.353291,-0.51673 2.05494,-1.02933 0.176318,-1.74694 -0.279268,-3.26425 -1.197849,-4.60524 z m -4.166869,3.67435 c -0.401887,0 -0.729954,-0.36496 -0.729954,-0.81195 0,-0.44699 0.319865,-0.81198 0.729954,-0.81198 0.405976,0 0.738134,0.36499 0.729932,0.81198 0,0.44699 -0.323956,0.81195 -0.729932,0.81195 z m 2.694675,0 c -0.401902,0 -0.730382,-0.36496 -0.730382,-0.81195 0,-0.44699 0.320278,-0.81198 0.730382,-0.81198 0.405977,0 0.738134,0.36499 0.729932,0.81198 0,0.44699 -0.319854,0.81195 -0.729932,0.81195 z"
       id="path834" />
  </g>
</svg>
